<mxfile host="app.diagrams.net" modified="2024-04-21T23:04:42.421Z" agent="Mozilla/5.0 (Windows NT 10.0; Win64; x64) AppleWebKit/537.36 (KHTML, like Gecko) Chrome/124.0.0.0 Safari/537.36" etag="RQqryIC4Q6udL_x6hrkO" version="24.2.7" type="github">
  <diagram name="Page-1" id="1GqAB_mv4StX9SiN3d4m">
    <mxGraphModel dx="875" dy="464" grid="1" gridSize="10" guides="1" tooltips="1" connect="1" arrows="1" fold="1" page="1" pageScale="1" pageWidth="827" pageHeight="1169" math="0" shadow="0">
      <root>
        <mxCell id="0" />
        <mxCell id="1" parent="0" />
        <mxCell id="zgFA7tZFyluII3JIJxJj-1" value="" style="endArrow=classic;html=1;rounded=0;" edge="1" parent="1">
          <mxGeometry width="50" height="50" relative="1" as="geometry">
            <mxPoint x="320" y="200" as="sourcePoint" />
            <mxPoint x="320" y="320" as="targetPoint" />
          </mxGeometry>
        </mxCell>
        <mxCell id="zgFA7tZFyluII3JIJxJj-2" value="" style="endArrow=classic;html=1;rounded=0;" edge="1" parent="1">
          <mxGeometry width="50" height="50" relative="1" as="geometry">
            <mxPoint x="320" y="200" as="sourcePoint" />
            <mxPoint x="440" y="200" as="targetPoint" />
          </mxGeometry>
        </mxCell>
        <mxCell id="zgFA7tZFyluII3JIJxJj-3" value="" style="whiteSpace=wrap;html=1;aspect=fixed;" vertex="1" parent="1">
          <mxGeometry x="320" y="250" width="20" height="20" as="geometry" />
        </mxCell>
        <mxCell id="zgFA7tZFyluII3JIJxJj-10" value="X = 0" style="text;html=1;align=center;verticalAlign=middle;whiteSpace=wrap;rounded=0;" vertex="1" parent="1">
          <mxGeometry x="310" y="170" width="60" height="30" as="geometry" />
        </mxCell>
        <mxCell id="zgFA7tZFyluII3JIJxJj-11" value="Y = 0" style="text;html=1;align=center;verticalAlign=middle;whiteSpace=wrap;rounded=0;" vertex="1" parent="1">
          <mxGeometry x="260" y="210" width="60" height="30" as="geometry" />
        </mxCell>
        <mxCell id="zgFA7tZFyluII3JIJxJj-14" value="Player" style="text;html=1;align=center;verticalAlign=middle;whiteSpace=wrap;rounded=0;" vertex="1" parent="1">
          <mxGeometry x="354" y="210" width="60" height="30" as="geometry" />
        </mxCell>
        <mxCell id="zgFA7tZFyluII3JIJxJj-15" value="" style="endArrow=classic;html=1;rounded=0;entryX=1;entryY=0.5;entryDx=0;entryDy=0;" edge="1" parent="1" source="zgFA7tZFyluII3JIJxJj-14" target="zgFA7tZFyluII3JIJxJj-3">
          <mxGeometry width="50" height="50" relative="1" as="geometry">
            <mxPoint x="350" y="290" as="sourcePoint" />
            <mxPoint x="400" y="240" as="targetPoint" />
          </mxGeometry>
        </mxCell>
        <mxCell id="zgFA7tZFyluII3JIJxJj-16" value="Player position: (X: 0, Y: 5)" style="text;html=1;align=center;verticalAlign=middle;whiteSpace=wrap;rounded=0;" vertex="1" parent="1">
          <mxGeometry x="240" y="250" width="60" height="30" as="geometry" />
        </mxCell>
        <mxCell id="zgFA7tZFyluII3JIJxJj-17" value="" style="endArrow=classic;html=1;rounded=0;" edge="1" parent="1">
          <mxGeometry width="50" height="50" relative="1" as="geometry">
            <mxPoint x="330" y="320" as="sourcePoint" />
            <mxPoint x="440" y="320" as="targetPoint" />
          </mxGeometry>
        </mxCell>
        <mxCell id="zgFA7tZFyluII3JIJxJj-18" value="" style="endArrow=classic;html=1;rounded=0;" edge="1" parent="1">
          <mxGeometry width="50" height="50" relative="1" as="geometry">
            <mxPoint x="440" y="310" as="sourcePoint" />
            <mxPoint x="440" y="210" as="targetPoint" />
          </mxGeometry>
        </mxCell>
        <mxCell id="zgFA7tZFyluII3JIJxJj-19" value="Screen Width = 800" style="text;html=1;align=center;verticalAlign=middle;whiteSpace=wrap;rounded=0;" vertex="1" parent="1">
          <mxGeometry x="450" y="245" width="60" height="30" as="geometry" />
        </mxCell>
        <mxCell id="zgFA7tZFyluII3JIJxJj-20" value="Screen Height = 800" style="text;html=1;align=center;verticalAlign=middle;whiteSpace=wrap;rounded=0;" vertex="1" parent="1">
          <mxGeometry x="360" y="330" width="60" height="30" as="geometry" />
        </mxCell>
        <mxCell id="zgFA7tZFyluII3JIJxJj-21" value="&lt;h1 style=&quot;margin-top: 0px;&quot;&gt;Player Collision with screen boundary&lt;/h1&gt;&lt;p&gt;If the players position is greater than the screens height or width, set it equal to screen height and width minus the players width or height. If players position is less than 0 on the X or Y axis set the position to 0 on the appropriate axis.&lt;/p&gt;" style="text;html=1;whiteSpace=wrap;overflow=hidden;rounded=0;" vertex="1" parent="1">
          <mxGeometry x="170" y="60" width="440" height="120" as="geometry" />
        </mxCell>
      </root>
    </mxGraphModel>
  </diagram>
</mxfile>
